<svg width="21" height="20" viewBox="0 0 21 20" fill="none" xmlns="http://www.w3.org/2000/svg">
<path d="M10.5013 18.9577C5.55964 18.9577 1.54297 14.941 1.54297 9.99935C1.54297 5.05768 5.55964 1.04102 10.5013 1.04102C15.443 1.04102 19.4596 5.05768 19.4596 9.99935C19.4596 14.941 15.443 18.9577 10.5013 18.9577ZM10.5013 2.29102C6.2513 2.29102 2.79297 5.74935 2.79297 9.99935C2.79297 14.2493 6.2513 17.7077 10.5013 17.7077C14.7513 17.7077 18.2096 14.2493 18.2096 9.99935C18.2096 5.74935 14.7513 2.29102 10.5013 2.29102Z" fill="#442066"/>
<path d="M13.8346 10.625H7.16797C6.8263 10.625 6.54297 10.3417 6.54297 10C6.54297 9.65833 6.8263 9.375 7.16797 9.375H13.8346C14.1763 9.375 14.4596 9.65833 14.4596 10C14.4596 10.3417 14.1763 10.625 13.8346 10.625Z" fill="#442066"/>
<path d="M10.5 13.9577C10.1583 13.9577 9.875 13.6743 9.875 13.3327V6.66602C9.875 6.32435 10.1583 6.04102 10.5 6.04102C10.8417 6.04102 11.125 6.32435 11.125 6.66602V13.3327C11.125 13.6743 10.8417 13.9577 10.5 13.9577Z" fill="#442066"/>
</svg>
