<svg xmlns="http://www.w3.org/2000/svg" viewBox="0 0 24 24" width="32" height="32">
  <path fill="#4A90E2" d="M5 13l1.5-4.5h11L19 13m-1.5 5a1.5 1.5 0 01-1.5-1.5 1.5 1.5 0 011.5-1.5 1.5 1.5 0 011.5 1.5 1.5 1.5 0 01-1.5 1.5m-11 0A1.5 1.5 0 015 16.5 1.5 1.5 0 016.5 15 1.5 1.5 0 018 16.5 1.5 1.5 0 016.5 18M18 13H6m12 0v3.5a1.5 1.5 0 01-1.5 1.5H16m2-5l1.96-5.87a1.5 1.5 0 00-1.41-2.13H5.45c-.71 0-1.33.47-1.41 1.13L2 13v3.5A1.5 1.5 0 003.5 18H5" stroke="#2563EB" stroke-width="1.5" stroke-linecap="round" stroke-linejoin="round"/>
</svg>