<svg width="24" height="25" viewBox="0 0 24 25" fill="none" xmlns="http://www.w3.org/2000/svg">
<path d="M14.9688 23.25H8.96875C3.53875 23.25 1.21875 20.93 1.21875 15.5V9.5C1.21875 4.07 3.53875 1.75 8.96875 1.75H14.9688C20.3988 1.75 22.7188 4.07 22.7188 9.5V15.5C22.7188 20.93 20.4088 23.25 14.9688 23.25ZM8.96875 3.25C4.35875 3.25 2.71875 4.89 2.71875 9.5V15.5C2.71875 20.11 4.35875 21.75 8.96875 21.75H14.9688C19.5788 21.75 21.2188 20.11 21.2188 15.5V9.5C21.2188 4.89 19.5788 3.25 14.9688 3.25H8.96875Z" fill="#292D32"/>
<path d="M11.4483 18.5609C11.2083 18.5609 10.6283 18.4709 10.2883 17.6009L9.14828 14.7209C8.98828 14.3109 8.41828 13.9309 7.98828 13.9309L1.98828 13.9509C1.57828 13.9509 1.23828 13.6209 1.23828 13.2009C1.23828 12.7909 1.56828 12.4509 1.98828 12.4509L7.98828 12.4309H7.99828C9.04828 12.4309 10.1683 13.1909 10.5583 14.1709L11.4683 16.4709L13.5283 11.2509C13.8383 10.4709 14.3883 10.3609 14.6183 10.3409C14.8483 10.3309 15.4083 10.3809 15.7983 11.1209L16.8383 13.0909C17.0183 13.4309 17.5583 13.7609 17.9483 13.7609H22.0083C22.4183 13.7609 22.7583 14.1009 22.7583 14.5109C22.7583 14.9209 22.4183 15.2609 22.0083 15.2609H17.9483C16.9983 15.2609 15.9583 14.6309 15.5183 13.7909L14.7383 12.3109L12.6383 17.6009C12.2683 18.4609 11.6783 18.5609 11.4483 18.5609Z" fill="#292D32"/>
</svg>
