<svg width="24" height="25" viewBox="0 0 24 25" fill="none" xmlns="http://www.w3.org/2000/svg">
<path d="M6.17916 23.2499C6.07916 23.2499 5.96916 23.2399 5.87916 23.2299L3.70916 22.9299C2.66916 22.7899 1.72916 21.8599 1.56916 20.7999L1.26916 18.6099C1.16916 17.9099 1.46916 16.9999 1.96916 16.4899L6.35916 12.0999C5.64916 9.25992 6.46916 6.25992 8.55916 4.18992C11.7992 0.959923 17.0692 0.949923 20.3192 4.18992C21.8892 5.75992 22.7492 7.84992 22.7492 10.0699C22.7492 12.2899 21.8892 14.3799 20.3192 15.9499C18.2192 18.0299 15.2292 18.8499 12.4092 18.1299L8.00916 22.5199C7.58916 22.9599 6.83916 23.2499 6.17916 23.2499ZM14.4292 3.25992C12.6792 3.25992 10.9392 3.91992 9.60916 5.24992C7.80916 7.03992 7.15916 9.65992 7.90916 12.0999C7.98916 12.3699 7.91916 12.6499 7.71916 12.8499L3.01916 17.5499C2.84916 17.7199 2.70916 18.1599 2.73916 18.3899L3.03916 20.5799C3.09916 20.9599 3.50916 21.3899 3.88916 21.4399L6.06916 21.7399C6.30916 21.7799 6.74916 21.6399 6.91916 21.4699L11.6392 16.7599C11.8392 16.5599 12.1292 16.4999 12.3892 16.5799C14.7992 17.3399 17.4292 16.6899 19.2292 14.8899C20.5092 13.6099 21.2192 11.8899 21.2192 10.0699C21.2192 8.23992 20.5092 6.52992 19.2292 5.24992C17.9292 3.92992 16.1792 3.25992 14.4292 3.25992Z" fill="#292D32"/>
<path d="M9.18812 21.0397C8.99812 21.0397 8.80812 20.9697 8.65812 20.8197L6.35813 18.5197C6.06813 18.2297 6.06813 17.7497 6.35813 17.4597C6.64812 17.1697 7.12812 17.1697 7.41812 17.4597L9.71813 19.7597C10.0081 20.0497 10.0081 20.5297 9.71813 20.8197C9.56813 20.9697 9.37812 21.0397 9.18812 21.0397Z" fill="#292D32"/>
<path d="M14.5 12.25C13.26 12.25 12.25 11.24 12.25 10C12.25 8.76 13.26 7.75 14.5 7.75C15.74 7.75 16.75 8.76 16.75 10C16.75 11.24 15.74 12.25 14.5 12.25ZM14.5 9.25C14.09 9.25 13.75 9.59 13.75 10C13.75 10.41 14.09 10.75 14.5 10.75C14.91 10.75 15.25 10.41 15.25 10C15.25 9.59 14.91 9.25 14.5 9.25Z" fill="#292D32"/>
</svg>
