<svg width="14" height="14" viewBox="0 0 14 14" fill="none" xmlns="http://www.w3.org/2000/svg">
<path d="M9.91763 9.91311C9.77919 9.77543 9.70998 9.61139 9.70998 9.421C9.70998 9.23061 9.77919 9.06866 9.91763 8.93515L11.1635 7.69603H5.86227C5.6667 7.69603 5.50189 7.62908 5.36784 7.49519C5.2338 7.36128 5.16677 7.19664 5.16677 7.00128C5.16677 6.8059 5.2338 6.64228 5.36784 6.51042C5.50189 6.37856 5.6667 6.31263 5.86227 6.31263H11.1284L9.85503 5.04618C9.7283 4.92584 9.66659 4.77204 9.66989 4.58479C9.6732 4.39755 9.74533 4.23478 9.88627 4.09648C10.0182 3.95818 10.1832 3.89068 10.3811 3.89398C10.5791 3.89726 10.7472 3.96774 10.8857 4.10542L13.3302 6.53661C13.4014 6.60909 13.4538 6.68681 13.4874 6.76978C13.521 6.85277 13.5379 6.93791 13.5379 7.02522C13.5379 7.11253 13.521 7.19665 13.4874 7.27756C13.4538 7.35847 13.4014 7.43495 13.3302 7.50698L10.8933 9.93057C10.7666 10.0566 10.6086 10.1196 10.4192 10.1196C10.2299 10.1196 10.0627 10.0508 9.91763 9.91311ZM1.86187 13.5379C1.47861 13.5379 1.14931 13.4019 0.873961 13.13C0.598612 12.8581 0.460938 12.5329 0.460938 12.1545V1.8542C0.460938 1.47304 0.598612 1.14554 0.873961 0.87169C1.14931 0.597855 1.47861 0.460938 1.86187 0.460938H6.34551C6.54108 0.460938 6.70589 0.529818 6.83994 0.66758C6.97398 0.805353 7.04101 0.971637 7.04101 1.16643C7.04101 1.36123 6.97398 1.52456 6.83994 1.65642C6.70589 1.78828 6.54108 1.8542 6.34551 1.8542H1.86187V12.1545H6.34551C6.54108 12.1545 6.70589 12.2214 6.83994 12.3553C6.97398 12.4892 7.04101 12.6539 7.04101 12.8492C7.04101 13.0446 6.97398 13.2082 6.83994 13.3401C6.70589 13.4719 6.54108 13.5379 6.34551 13.5379H1.86187Z" fill="#1B2559"/>
</svg>
