<svg width="21" height="31" viewBox="0 0 21 31" fill="none" xmlns="http://www.w3.org/2000/svg">
<g clip-path="url(#clip0_3852_17149)">
<path d="M5.76953 22.7237C6.63712 23.8294 7.42679 24.9941 8.13283 26.2094C8.73561 27.3523 8.98689 28.1273 9.42741 29.5045C9.69757 30.2653 9.94174 30.4924 10.4667 30.4924C11.0387 30.4924 11.2983 30.1061 11.4988 29.5086C11.9152 28.2081 12.2419 27.2156 12.7574 26.2777C13.7689 24.4671 15.0258 22.8581 16.2608 21.3118C16.5951 20.8741 18.7568 18.3244 19.7299 16.3126C19.7299 16.3126 20.926 14.1027 20.926 11.0163C20.926 8.12927 19.7464 6.12695 19.7464 6.12695L16.3504 7.03644L14.288 12.4684L13.7777 13.2174L13.6757 13.3531L13.54 13.523L13.3018 13.7943L12.9614 14.1346L11.1249 15.6308L6.53335 18.2819L5.76953 22.7237Z" fill="#34A853"/>
<path d="M1.03125 15.9406C2.15188 18.5002 4.31286 20.7503 5.77493 22.7249L13.5407 13.5259C13.5407 13.5259 12.4466 14.9568 10.462 14.9568C8.25144 14.9568 6.46558 13.1915 6.46558 10.9656C6.46558 9.43924 7.38389 8.39062 7.38389 8.39062L2.11231 9.80316L1.03125 15.9406Z" fill="#FBBC04"/>
<path d="M13.6273 0.972656C16.2065 1.80424 18.414 3.55004 19.7493 6.1244L13.5429 13.5204C13.5429 13.5204 14.4612 12.4528 14.4612 10.9359C14.4612 8.65821 12.5433 6.95663 10.4713 6.95663C8.512 6.95663 7.38672 8.38511 7.38672 8.38511V3.72571L13.6273 0.972656Z" fill="#4285F4"/>
<path d="M2.45312 4.24101C3.99359 2.39793 6.70422 0.5 10.4412 0.5C12.2543 0.5 13.6202 0.975995 13.6202 0.975995L7.38024 8.38959H2.95912L2.45312 4.24101Z" fill="#1A73E8"/>
<path d="M1.03095 15.94C1.03095 15.94 0 13.9211 0 10.9963C0 8.23195 1.0746 5.8156 2.45354 4.24023L7.38417 8.38947L1.03095 15.94Z" fill="#EA4335"/>
</g>
<defs>
<clipPath id="clip0_3852_17149">
<rect width="20.9264" height="30" fill="white" transform="translate(0 0.5)"/>
</clipPath>
</defs>
</svg>
