<svg width="24" height="25" viewBox="0 0 24 25" fill="none" xmlns="http://www.w3.org/2000/svg">
<path d="M17 21.75H7C3.35 21.75 1.25 19.65 1.25 16V9C1.25 5.35 3.35 3.25 7 3.25H17C20.65 3.25 22.75 5.35 22.75 9V16C22.75 19.65 20.65 21.75 17 21.75ZM7 4.75C4.14 4.75 2.75 6.14 2.75 9V16C2.75 18.86 4.14 20.25 7 20.25H17C19.86 20.25 21.25 18.86 21.25 16V9C21.25 6.14 19.86 4.75 17 4.75H7Z" fill="#292D32"/>
<path d="M12 16.25C9.93 16.25 8.25 14.57 8.25 12.5C8.25 10.43 9.93 8.75 12 8.75C14.07 8.75 15.75 10.43 15.75 12.5C15.75 14.57 14.07 16.25 12 16.25ZM12 10.25C10.76 10.25 9.75 11.26 9.75 12.5C9.75 13.74 10.76 14.75 12 14.75C13.24 14.75 14.25 13.74 14.25 12.5C14.25 11.26 13.24 10.25 12 10.25Z" fill="#292D32"/>
<path d="M19 8.25H16C15.59 8.25 15.25 7.91 15.25 7.5C15.25 7.09 15.59 6.75 16 6.75H19C19.41 6.75 19.75 7.09 19.75 7.5C19.75 7.91 19.41 8.25 19 8.25Z" fill="#292D32"/>
<path d="M8 18.25H5C4.59 18.25 4.25 17.91 4.25 17.5C4.25 17.09 4.59 16.75 5 16.75H8C8.41 16.75 8.75 17.09 8.75 17.5C8.75 17.91 8.41 18.25 8 18.25Z" fill="#292D32"/>
</svg>
