<svg width="25" height="24" viewBox="0 0 25 24" fill="none" xmlns="http://www.w3.org/2000/svg">
<path d="M12.5 14C13.6046 14 14.5 13.1046 14.5 12C14.5 10.8954 13.6046 10 12.5 10C11.3954 10 10.5 10.8954 10.5 12C10.5 13.1046 11.3954 14 12.5 14Z" fill="#FFCA00" stroke="#FFCA00"/>
<path d="M5.899 5.87998L6.149 5.44598C6.05085 5.38923 5.93632 5.36752 5.82421 5.38442C5.7121 5.40132 5.60906 5.45582 5.532 5.53898L5.899 5.87998ZM3.9 9.34398L3.422 9.19598C3.38873 9.30419 3.39317 9.42048 3.43458 9.52584C3.476 9.63121 3.55195 9.71939 3.65 9.77598L3.9 9.34398ZM3.898 14.655L3.648 14.222C3.54974 14.2786 3.47365 14.367 3.43222 14.4725C3.39079 14.5781 3.38648 14.6946 3.42 14.803L3.898 14.655ZM5.898 18.119L5.531 18.459C5.60806 18.5421 5.7111 18.5966 5.82321 18.6135C5.93532 18.6304 6.04985 18.6087 6.148 18.552L5.898 18.119ZM10.498 20.774H9.998C9.99794 20.8875 10.0365 20.9977 10.1074 21.0864C10.1783 21.1751 10.2772 21.237 10.388 21.262L10.498 20.774ZM14.499 20.776L14.61 21.264C14.7206 21.2388 14.8193 21.1768 14.89 21.0881C14.9607 20.9994 14.9991 20.8894 14.999 20.776H14.499ZM19.1 18.12L18.85 18.553C18.9482 18.6097 19.0627 18.6314 19.1748 18.6145C19.2869 18.5976 19.3899 18.5431 19.467 18.46L19.1 18.12ZM21.098 14.654L21.576 14.802C21.6093 14.6938 21.6048 14.5775 21.5634 14.4721C21.522 14.3667 21.4461 14.2786 21.348 14.222L21.098 14.654ZM21.1 9.34298L21.35 9.77598C21.4483 9.71935 21.5244 9.63099 21.5658 9.52542C21.6072 9.41985 21.6115 9.30332 21.578 9.19498L21.1 9.34298ZM19.1 5.87798L19.467 5.53798C19.3899 5.45482 19.2869 5.40032 19.1748 5.38342C19.0627 5.36652 18.9482 5.38823 18.85 5.44498L19.1 5.87798ZM14.5 3.22498H15C14.9999 3.11175 14.9613 3.00192 14.8907 2.91345C14.82 2.82498 14.7214 2.76311 14.611 2.73798L14.5 3.22498ZM10.5 3.22298L10.389 2.73498C10.2782 2.75995 10.1793 2.82188 10.1084 2.91058C10.0375 2.99927 9.99894 3.10944 9.999 3.22298H10.5ZM4.378 9.49198C4.75351 8.27323 5.39844 7.15461 6.265 6.21898L5.532 5.53898C4.56313 6.58457 3.84199 7.83378 3.422 9.19598L4.378 9.49198ZM5.138 16.25C4.82 15.6996 4.56473 15.1153 4.377 14.508L3.421 14.804C3.63135 15.4825 3.91714 16.1352 4.273 16.75L5.138 16.25ZM6.266 17.78C5.83433 17.3137 5.4553 16.8005 5.138 16.25L4.273 16.75C4.62744 17.3652 5.04975 17.9388 5.532 18.46L6.266 17.78ZM14.389 20.29C13.1455 20.5727 11.8542 20.572 10.611 20.288L10.389 21.262C11.7783 21.5796 13.2213 21.5807 14.611 21.265L14.389 20.29ZM20.622 14.508C20.2465 15.7267 19.6016 16.8453 18.735 17.781L19.468 18.461C20.4369 17.4154 21.158 16.1652 21.578 14.803L20.622 14.508ZM19.862 7.74998C20.186 8.31298 20.439 8.89698 20.624 9.49198L21.579 9.19598C21.3686 8.5175 21.0829 7.86475 20.727 7.24998L19.862 7.74998ZM18.734 6.21998C19.1657 6.68625 19.5447 7.19946 19.862 7.74998L20.727 7.24998C20.3726 6.63472 19.9503 6.06114 19.468 5.53998L18.734 6.21998ZM10.611 3.70998C11.8545 3.42722 13.1458 3.42791 14.389 3.71198L14.611 2.73798C13.2217 2.42031 11.7787 2.41928 10.389 2.73498L10.611 3.70998ZM11 5.07198V3.22198H10V5.07198H11ZM7.75 6.36998L6.149 5.44598L5.649 6.31098L7.249 7.23598L7.75 6.36998ZM5.25 13.298L3.648 14.222L4.149 15.088L5.749 14.164L5.25 13.298ZM5.75 9.83398L4.15 8.91098L3.65 9.77698L5.25 10.7L5.75 9.83398ZM11 20.774V18.927H10V20.774H11ZM7.25 16.762L5.649 17.686L6.149 18.552L7.749 17.628L7.25 16.762ZM19.351 17.687L17.75 16.762L17.25 17.629L18.85 18.553L19.351 17.687ZM15 20.777V18.927H14V20.777H15ZM20.851 8.90998L19.25 9.83398L19.75 10.7L21.35 9.77598L20.851 8.90998ZM21.349 14.221L19.75 13.3L19.25 14.166L20.85 15.089L21.349 14.221ZM15 5.07198V3.22498H14V5.07198H15ZM18.851 5.44598L17.25 6.37098L17.75 7.23698L19.351 6.31198L18.851 5.44598ZM14 5.07198C14 6.99598 16.083 8.19898 17.75 7.23698L17.25 6.37098C17.0219 6.50267 16.7631 6.57198 16.4998 6.57194C16.2364 6.5719 15.9776 6.5025 15.7496 6.37074C15.5215 6.23897 15.3322 6.04948 15.2006 5.82131C15.069 5.59315 14.9998 5.33536 15 5.07198H14ZM19.25 9.83498C17.583 10.797 17.583 13.203 19.25 14.165L19.75 13.299C19.522 13.1673 19.3327 12.978 19.201 12.7499C19.0694 12.5219 19.0001 12.2633 19.0001 12C19.0001 11.7367 19.0694 11.478 19.201 11.25C19.3327 11.022 19.522 10.8326 19.75 10.701L19.25 9.83498ZM17.75 16.763C16.083 15.801 14 17.002 14 18.927H15C15 18.6637 15.0693 18.406 15.201 18.178C15.3326 17.95 15.522 17.7606 15.75 17.629C15.978 17.4973 16.2367 17.428 16.5 17.428C16.7633 17.428 17.022 17.4973 17.25 17.629L17.75 16.763ZM11 18.927C11 17.003 8.917 15.801 7.25 16.763L7.75 17.629C7.9781 17.4973 8.23685 17.428 8.50024 17.428C8.76363 17.4281 9.02236 17.4975 9.25042 17.6292C9.47847 17.761 9.66782 17.9505 9.7994 18.1786C9.93098 18.4068 10.0002 18.6656 10 18.929L11 18.927ZM5.75 14.165C7.417 13.203 7.417 10.797 5.75 9.83498L5.25 10.701C6.25 11.278 6.25 12.72 5.25 13.298L5.75 14.165ZM10 5.07198C9.99982 5.33519 9.93038 5.59373 9.79865 5.82161C9.66692 6.0495 9.47755 6.23871 9.24955 6.37024C9.02155 6.50177 8.76296 6.57098 8.49974 6.57094C8.23652 6.57089 7.97795 6.50159 7.75 6.36998L7.25 7.23698C8.917 8.19898 11 6.99698 11 5.07198H10Z" fill="#FFCA00"/>
</svg>
