<svg width="152" height="27" viewBox="0 0 152 27" fill="none" xmlns="http://www.w3.org/2000/svg">
<g clip-path="url(#clip0_1027_14573)">
<rect width="125" height="25.83" transform="translate(0 0.584999)" fill="black"/>
<g clip-path="url(#clip1_1027_14573)">
<path d="M30.1894 19.5864V17.9713H35.9468C36.3901 17.9713 36.7701 17.8699 37.0869 17.6672C37.4037 17.4519 37.6507 17.1795 37.8279 16.8502C38.0052 16.5208 38.0939 16.1725 38.0939 15.8051C38.0939 15.4251 38.0052 15.0767 37.8279 14.76C37.6631 14.4307 37.4227 14.171 37.1059 13.981C36.8018 13.7783 36.4281 13.6769 35.9848 13.6769H33.4766C32.7293 13.6769 32.0705 13.5249 31.5005 13.2209C30.9304 12.9042 30.4806 12.4735 30.1514 11.9288C29.8346 11.3715 29.6763 10.7444 29.6763 10.0477C29.6763 9.33831 29.8283 8.69859 30.1324 8.12854C30.4492 7.5585 30.8862 7.10879 31.4435 6.77945C32.0135 6.4501 32.6658 6.28541 33.4006 6.28541H39.044V7.90053H33.5716C33.1536 7.90053 32.7863 8.00186 32.4695 8.20455C32.1527 8.39456 31.9123 8.64791 31.7475 8.9646C31.5827 9.26863 31.5005 9.59797 31.5005 9.95268C31.5005 10.2947 31.5765 10.624 31.7285 10.9407C31.8933 11.2448 32.1275 11.4918 32.4315 11.6818C32.7483 11.8718 33.1093 11.9668 33.5146 11.9668H36.0798C36.8779 11.9668 37.5619 12.1252 38.1319 12.4419C38.702 12.7586 39.139 13.1892 39.443 13.7339C39.7471 14.2787 39.8991 14.8994 39.8991 15.5961C39.8991 16.3688 39.7408 17.0592 39.424 17.6672C39.12 18.2626 38.683 18.7313 38.1129 19.0733C37.5429 19.4154 36.8906 19.5864 36.1558 19.5864H30.1894ZM47.2137 19.5864C46.1496 19.5864 45.2058 19.39 44.3825 18.9973C43.5592 18.592 42.9132 18.0283 42.4444 17.3062C41.9883 16.5715 41.7603 15.7164 41.7603 14.741C41.7603 13.7783 41.9566 12.9169 42.3494 12.1568C42.7422 11.3841 43.2867 10.7761 43.9835 10.3327C44.6803 9.88935 45.4908 9.66765 46.4157 9.66765C47.4165 9.66765 48.246 9.88299 48.9048 10.3137C49.5761 10.7444 50.0767 11.3271 50.4059 12.0618C50.7352 12.7839 50.9 13.5946 50.9 14.494C50.9 14.6333 50.8937 14.779 50.881 14.931C50.881 15.083 50.8682 15.2161 50.843 15.3301H43.6225C43.6857 15.9254 43.8822 16.4321 44.2115 16.8502C44.5408 17.2555 44.9588 17.5659 45.4656 17.7812C45.9849 17.9839 46.5549 18.0853 47.1757 18.0853H49.7029V19.5864H47.2137ZM43.6035 14.095H49.1329C49.1329 13.8543 49.1076 13.6009 49.0568 13.3349C49.0061 13.0562 48.9176 12.7902 48.7908 12.5369C48.6641 12.2708 48.493 12.0365 48.2778 11.8338C48.075 11.6185 47.8155 11.4475 47.4987 11.3208C47.1947 11.1941 46.8337 11.1308 46.4157 11.1308C45.9724 11.1308 45.5796 11.2194 45.2376 11.3968C44.9083 11.5615 44.6233 11.7895 44.3825 12.0808C44.1417 12.3595 43.9582 12.6762 43.8315 13.0309C43.7047 13.3856 43.6287 13.7403 43.6035 14.095ZM53.3191 19.5864V13.753C53.3191 13.0056 53.4901 12.3215 53.8321 11.7008C54.1742 11.0801 54.6682 10.586 55.3142 10.2187C55.9603 9.85135 56.7393 9.66765 57.6514 9.66765C58.0947 9.66765 58.5382 9.73098 58.9815 9.85767C59.4248 9.97168 59.8366 10.1744 60.2166 10.4657C60.5966 10.7444 60.9006 11.1244 61.1287 11.6058H61.1477C61.4009 11.1244 61.7177 10.7444 62.0977 10.4657C62.4778 10.1744 62.8896 9.97168 63.3328 9.85767C63.7761 9.73098 64.2259 9.66765 64.6819 9.66765C65.5812 9.66765 66.354 9.85135 67.0001 10.2187C67.6461 10.586 68.1402 11.0801 68.4822 11.7008C68.8242 12.3215 68.9952 13.0056 68.9952 13.753V19.5864H67.2471V13.753C67.2471 13.2716 67.1331 12.8346 66.9051 12.4419C66.6771 12.0492 66.3668 11.7388 65.974 11.5108C65.594 11.2828 65.157 11.1688 64.6629 11.1688C64.1817 11.1688 63.7381 11.2891 63.3328 11.5298C62.9276 11.7578 62.6045 12.0682 62.3638 12.4609C62.1357 12.8409 62.0217 13.2716 62.0217 13.753V19.5864H60.2736V13.753C60.2736 13.2716 60.1534 12.8409 59.9126 12.4609C59.6846 12.0682 59.3678 11.7578 58.9625 11.5298C58.5697 11.2891 58.1264 11.1688 57.6324 11.1688C57.1511 11.1688 56.7141 11.2828 56.3213 11.5108C55.9413 11.7388 55.6373 12.0492 55.4092 12.4419C55.1812 12.8346 55.0672 13.2716 55.0672 13.753V19.5864H53.3191ZM75.9821 19.8144C75.0448 19.8144 74.234 19.5927 73.5499 19.1493C72.8659 18.6933 72.3401 18.0789 71.9728 17.3062C71.6056 16.5335 71.4218 15.6784 71.4218 14.741C71.4218 13.791 71.6246 12.9359 72.0298 12.1758C72.4351 11.4031 73.0179 10.7951 73.7779 10.3517C74.538 9.89567 75.4501 9.66765 76.5141 9.66765C77.5402 9.66765 78.4205 9.88935 79.1553 10.3327C79.8901 10.7761 80.4537 11.3778 80.8465 12.1378C81.2517 12.8979 81.4545 13.7466 81.4545 14.684V19.5864H79.6874V17.6102H79.6494C79.4594 17.9776 79.1996 18.3323 78.8703 18.6743C78.5535 19.0037 78.1545 19.276 77.6732 19.4914C77.192 19.7067 76.6282 19.8144 75.9821 19.8144ZM76.4381 18.3133C77.0714 18.3133 77.629 18.1613 78.1103 17.8572C78.6043 17.5405 78.9843 17.1099 79.2503 16.5652C79.5291 16.0078 79.6684 15.3871 79.6684 14.703C79.6684 14.0316 79.5354 13.4299 79.2693 12.8979C79.0161 12.3659 78.6485 11.9478 78.1673 11.6438C77.686 11.3271 77.1222 11.1688 76.4761 11.1688C75.7921 11.1688 75.203 11.3271 74.709 11.6438C74.2277 11.9605 73.8539 12.3912 73.5879 12.9359C73.3347 13.4679 73.2079 14.076 73.2079 14.76C73.2079 15.4187 73.3347 16.0204 73.5879 16.5652C73.8412 17.0972 74.2087 17.5215 74.69 17.8382C75.1713 18.1549 75.7541 18.3133 76.4381 18.3133ZM84.4279 19.5864V13.981C84.4279 13.1196 84.6179 12.3659 84.998 11.7198C85.3908 11.0738 85.929 10.5734 86.6131 10.2187C87.2971 9.85135 88.0762 9.66765 88.9502 9.66765C89.8371 9.66765 90.6161 9.85135 91.2874 10.2187C91.9715 10.5734 92.5035 11.0738 92.8835 11.7198C93.2763 12.3659 93.4726 13.1196 93.4726 13.981V19.5864H91.7245V14C91.7245 13.4173 91.5914 12.9169 91.3254 12.4989C91.0722 12.0682 90.7301 11.7388 90.2993 11.5108C89.8813 11.2828 89.4315 11.1688 88.9502 11.1688C88.469 11.1688 88.0129 11.2828 87.5821 11.5108C87.1641 11.7388 86.8221 12.0682 86.5561 12.4989C86.3028 12.9169 86.176 13.4173 86.176 14V19.5864H84.4279ZM99.7442 19.5864C98.8829 19.5864 98.2051 19.3394 97.7111 18.8453C97.2298 18.3513 96.989 17.6799 96.989 16.8312V7.4635H98.7372V16.7172C98.7372 17.1352 98.8512 17.4709 99.0792 17.7242C99.32 17.9649 99.6492 18.0853 100.067 18.0853H102.024V19.5864H99.7442ZM95.3169 11.3968V9.89567H102.062V11.3968H95.3169ZM107.672 19.5864C106.811 19.5864 106.133 19.3394 105.639 18.8453C105.158 18.3513 104.917 17.6799 104.917 16.8312V7.4635H106.665V16.7172C106.665 17.1352 106.779 17.4709 107.007 17.7242C107.248 17.9649 107.577 18.0853 107.995 18.0853H109.952V19.5864H107.672ZM103.245 11.3968V9.89567H109.99V11.3968H103.245ZM112.294 19.5864V9.89567H114.061V19.5864H112.294ZM113.187 8.35656C112.87 8.35656 112.592 8.24255 112.351 8.01454C112.123 7.77384 112.009 7.49517 112.009 7.17847C112.009 6.86178 112.123 6.58943 112.351 6.36142C112.592 6.12072 112.87 6.00039 113.187 6.00039C113.504 6.00039 113.776 6.12072 114.004 6.36142C114.245 6.58943 114.365 6.86178 114.365 7.17847C114.365 7.49517 114.245 7.77384 114.004 8.01454C113.776 8.24255 113.504 8.35656 113.187 8.35656ZM121.705 19.5864C120.704 19.5864 119.811 19.371 119.026 18.9403C118.24 18.5096 117.619 17.9333 117.163 17.2112C116.707 16.4765 116.479 15.6531 116.479 14.741C116.479 13.829 116.707 13.0119 117.163 12.2898C117.619 11.5551 118.24 10.9724 119.026 10.5417C119.811 10.111 120.704 9.89567 121.705 9.89567H122.845V11.3968H121.648C121.002 11.3968 120.419 11.5488 119.9 11.8528C119.393 12.1442 118.988 12.5432 118.684 13.0499C118.392 13.5566 118.247 14.1203 118.247 14.741C118.247 15.3617 118.392 15.9254 118.684 16.4321C118.988 16.9389 119.393 17.3442 119.9 17.6482C120.419 17.9396 121.002 18.0853 121.648 18.0853H122.845V19.5864H121.705Z" fill="white"/>
<path fill-rule="evenodd" clip-rule="evenodd" d="M12.3051 0.621414L24.2164 7.13587L18.5456 10.2105L23.9286 13.1576V19.7354L12.1709 26.1602L0.281006 19.5586L5.91869 16.4464L0.597084 13.5087V6.93247L12.0286 0.621976L12.1673 0.873321L12.3051 0.621414ZM17.9243 10.5474L22.9992 13.3258L12.2 19.2356L1.51025 13.3346L6.4996 10.5572L12.1616 13.6718L17.9243 10.5474ZM5.88555 10.2194L1.19088 7.63692V12.8328L5.88555 10.2194ZM12.4689 19.7653V25.3206L23.3348 19.3832V13.819L12.4689 19.7653ZM12.1636 12.9952L1.48462 7.12079L12.168 1.22325L22.9748 7.13359L12.1636 12.9952ZM6.533 16.7855L1.50696 19.5601L11.8751 25.3168V19.7346L6.533 16.7855Z" fill="white"/>
</g>
</g>
<path d="M129.75 17.18C129.154 17.18 128.65 17.03 128.238 16.73C127.826 16.426 127.514 16.016 127.302 15.5C127.09 14.98 126.984 14.398 126.984 13.754C126.984 13.098 127.09 12.514 127.302 12.002C127.518 11.486 127.834 11.08 128.25 10.784C128.666 10.488 129.178 10.34 129.786 10.34C130.378 10.34 130.886 10.49 131.31 10.79C131.734 11.09 132.058 11.498 132.282 12.014C132.51 12.53 132.624 13.11 132.624 13.754C132.624 14.402 132.51 14.984 132.282 15.5C132.054 16.016 131.726 16.426 131.298 16.73C130.87 17.03 130.354 17.18 129.75 17.18ZM126.834 17V8.36H127.722V12.122H127.626V17H126.834ZM129.66 16.358C130.112 16.358 130.488 16.244 130.788 16.016C131.088 15.788 131.312 15.478 131.46 15.086C131.612 14.69 131.688 14.246 131.688 13.754C131.688 13.266 131.614 12.826 131.466 12.434C131.318 12.042 131.092 11.732 130.788 11.504C130.488 11.276 130.106 11.162 129.642 11.162C129.19 11.162 128.814 11.272 128.514 11.492C128.218 11.712 127.996 12.018 127.848 12.41C127.7 12.798 127.626 13.246 127.626 13.754C127.626 14.254 127.7 14.702 127.848 15.098C127.996 15.49 128.22 15.798 128.52 16.022C128.82 16.246 129.2 16.358 129.66 16.358ZM136.684 17.18C136.052 17.18 135.504 17.04 135.04 16.76C134.58 16.48 134.222 16.086 133.966 15.578C133.71 15.07 133.582 14.474 133.582 13.79C133.582 13.082 133.708 12.47 133.96 11.954C134.212 11.438 134.566 11.04 135.022 10.76C135.482 10.48 136.024 10.34 136.648 10.34C137.288 10.34 137.834 10.488 138.286 10.784C138.738 11.076 139.08 11.496 139.312 12.044C139.544 12.592 139.65 13.246 139.63 14.006H138.73V13.694C138.714 12.854 138.532 12.22 138.184 11.792C137.84 11.364 137.336 11.15 136.672 11.15C135.976 11.15 135.442 11.376 135.07 11.828C134.702 12.28 134.518 12.924 134.518 13.76C134.518 14.576 134.702 15.21 135.07 15.662C135.442 16.11 135.968 16.334 136.648 16.334C137.112 16.334 137.516 16.228 137.86 16.016C138.208 15.8 138.482 15.49 138.682 15.086L139.504 15.404C139.248 15.968 138.87 16.406 138.37 16.718C137.874 17.026 137.312 17.18 136.684 17.18ZM134.206 14.006V13.268H139.156V14.006H134.206ZM144.489 17C144.125 17.076 143.765 17.106 143.409 17.09C143.057 17.074 142.741 16.998 142.461 16.862C142.185 16.726 141.975 16.514 141.831 16.226C141.715 15.986 141.651 15.744 141.639 15.5C141.631 15.252 141.627 14.97 141.627 14.654V8.72H142.503V14.618C142.503 14.89 142.505 15.118 142.509 15.302C142.517 15.482 142.559 15.642 142.635 15.782C142.779 16.05 143.007 16.21 143.319 16.262C143.635 16.314 144.025 16.302 144.489 16.226V17ZM140.241 11.276V10.52H144.489V11.276H140.241ZM147.62 17.18C147.132 17.18 146.722 17.092 146.39 16.916C146.062 16.74 145.816 16.506 145.652 16.214C145.488 15.922 145.406 15.604 145.406 15.26C145.406 14.908 145.476 14.608 145.616 14.36C145.76 14.108 145.954 13.902 146.198 13.742C146.446 13.582 146.732 13.46 147.056 13.376C147.384 13.296 147.746 13.226 148.142 13.166C148.542 13.102 148.932 13.048 149.312 13.004C149.696 12.956 150.032 12.91 150.32 12.866L150.008 13.058C150.02 12.418 149.896 11.944 149.636 11.636C149.376 11.328 148.924 11.174 148.28 11.174C147.836 11.174 147.46 11.274 147.152 11.474C146.848 11.674 146.634 11.99 146.51 12.422L145.652 12.17C145.8 11.59 146.098 11.14 146.546 10.82C146.994 10.5 147.576 10.34 148.292 10.34C148.884 10.34 149.386 10.452 149.798 10.676C150.214 10.896 150.508 11.216 150.68 11.636C150.76 11.824 150.812 12.034 150.836 12.266C150.86 12.498 150.872 12.734 150.872 12.974V17H150.086V15.374L150.314 15.47C150.094 16.026 149.752 16.45 149.288 16.742C148.824 17.034 148.268 17.18 147.62 17.18ZM147.722 16.418C148.134 16.418 148.494 16.344 148.802 16.196C149.11 16.048 149.358 15.846 149.546 15.59C149.734 15.33 149.856 15.038 149.912 14.714C149.96 14.506 149.986 14.278 149.99 14.03C149.994 13.778 149.996 13.59 149.996 13.466L150.332 13.64C150.032 13.68 149.706 13.72 149.354 13.76C149.006 13.8 148.662 13.846 148.322 13.898C147.986 13.95 147.682 14.012 147.41 14.084C147.226 14.136 147.048 14.21 146.876 14.306C146.704 14.398 146.562 14.522 146.45 14.678C146.342 14.834 146.288 15.028 146.288 15.26C146.288 15.448 146.334 15.63 146.426 15.806C146.522 15.982 146.674 16.128 146.882 16.244C147.094 16.36 147.374 16.418 147.722 16.418Z" fill="#FCAA4A"/>
<a href="https://www.figma.com/design/r9DJMCvgm8ZLFQ5gpv72LU?node-id=2003-13381">
<rect fill="black" fill-opacity="0" y="-0.996" width="25.5918" height="16.392"/>
</a>
<defs>
<clipPath id="clip0_1027_14573">
<rect width="125" height="25.83" fill="white" transform="translate(0 0.584999)"/>
</clipPath>
<clipPath id="clip1_1027_14573">
<rect width="124.993" height="25.83" fill="white" transform="translate(0.0032959 0.584999)"/>
</clipPath>
</defs>
</svg>
