<svg width="24" height="24" viewBox="0 0 24 24" fill="none" xmlns="http://www.w3.org/2000/svg">
<path d="M22.0035 13.45L16.2045 11.3657L13.7805 8.32224C13.5697 8.06454 13.3042 7.857 13.0033 7.71469C12.7023 7.57238 12.3734 7.49887 12.0405 7.49949H6.0435C5.67675 7.49949 5.31556 7.58915 4.99138 7.76065C4.6672 7.93215 4.38986 8.1803 4.1835 8.48349L2.1495 11.4707C1.72637 12.0927 1.50007 12.8275 1.5 13.5797V19.4995C1.5 19.6984 1.57902 19.8892 1.71967 20.0298C1.86032 20.1705 2.05109 20.2495 2.25 20.2495H3.8565C4.01965 20.8932 4.39277 21.4641 4.91683 21.8719C5.44089 22.2797 6.08597 22.5011 6.75 22.5011C7.41403 22.5011 8.05911 22.2797 8.58317 21.8719C9.10723 21.4641 9.48035 20.8932 9.6435 20.2495H14.3565C14.5197 20.8932 14.8928 21.4641 15.4168 21.8719C15.9409 22.2797 16.586 22.5011 17.25 22.5011C17.914 22.5011 18.5591 22.2797 19.0832 21.8719C19.6072 21.4641 19.9803 20.8932 20.1435 20.2495H21.75C21.9489 20.2495 22.1397 20.1705 22.2803 20.0298C22.421 19.8892 22.5 19.6984 22.5 19.4995V14.1557C22.5 14.0013 22.4523 13.8506 22.3634 13.7243C22.2745 13.598 22.1489 13.5022 22.0035 13.45ZM6.75 20.9995C6.45333 20.9995 6.16332 20.9115 5.91665 20.7467C5.66997 20.5819 5.47771 20.3476 5.36418 20.0735C5.25065 19.7994 5.22094 19.4978 5.27882 19.2069C5.3367 18.9159 5.47956 18.6486 5.68934 18.4388C5.89912 18.229 6.16639 18.0862 6.45736 18.0283C6.74834 17.9704 7.04994 18.0001 7.32403 18.1137C7.59811 18.2272 7.83238 18.4195 7.9972 18.6661C8.16203 18.9128 8.25 19.2028 8.25 19.4995C8.2494 19.8971 8.09118 20.2783 7.81 20.5595C7.52883 20.8407 7.14764 20.9989 6.75 20.9995ZM17.25 20.9995C16.9533 20.9995 16.6633 20.9115 16.4166 20.7467C16.17 20.5819 15.9777 20.3476 15.8642 20.0735C15.7506 19.7994 15.7209 19.4978 15.7788 19.2069C15.8367 18.9159 15.9796 18.6486 16.1893 18.4388C16.3991 18.229 16.6664 18.0862 16.9574 18.0283C17.2483 17.9704 17.5499 18.0001 17.824 18.1137C18.0981 18.2272 18.3324 18.4195 18.4972 18.6661C18.662 18.9128 18.75 19.2028 18.75 19.4995C18.7494 19.8971 18.5912 20.2783 18.31 20.5595C18.0288 20.8407 17.6476 20.9989 17.25 20.9995ZM21 18.7495H20.1435C19.9803 18.1058 19.6072 17.5349 19.0832 17.1271C18.5591 16.7193 17.914 16.4979 17.25 16.4979C16.586 16.4979 15.9409 16.7193 15.4168 17.1271C14.8928 17.5349 14.5197 18.1058 14.3565 18.7495H9.6435C9.48035 18.1058 9.10723 17.5349 8.58317 17.1271C8.05911 16.7193 7.41403 16.4979 6.75 16.4979C6.08597 16.4979 5.44089 16.7193 4.91683 17.1271C4.39277 17.5349 4.01965 18.1058 3.8565 18.7495H3V13.5797C3.00001 13.1282 3.1359 12.687 3.39 12.3137L5.42325 9.32799C5.492 9.2268 5.58447 9.14396 5.69258 9.08671C5.80069 9.02945 5.92116 8.9995 6.0435 8.99949H12.0405C12.1496 8.99951 12.2574 9.02334 12.3564 9.06933C12.4554 9.11531 12.5431 9.18234 12.6135 9.26574L15.1635 12.4667C15.2502 12.5756 15.3655 12.6582 15.4965 12.7052L21 14.683V18.7495ZM18.4163 4.49949C18.4163 4.10166 18.5743 3.72013 18.8556 3.43883C19.1369 3.15752 19.5184 2.99949 19.9163 2.99949H22.5C22.2047 2.48403 21.7621 2.06854 21.229 1.80629C20.696 1.54404 20.0967 1.44698 19.5081 1.52756C18.9195 1.60815 18.3684 1.8627 17.9255 2.25858C17.4825 2.65446 17.1679 3.17362 17.022 3.74949H12V5.24949H17.022C17.1679 5.82536 17.4825 6.34452 17.9255 6.7404C18.3684 7.13628 18.9195 7.39083 19.5081 7.47141C20.0967 7.552 20.696 7.45494 21.229 7.19269C21.7621 6.93044 22.2047 6.51495 22.5 5.99949H19.9163C19.5184 5.99949 19.1369 5.84145 18.8556 5.56015C18.5743 5.27884 18.4163 4.89731 18.4163 4.49949Z" fill="#1C1C1C"/>
</svg>
